<?xml version="1.0" encoding="UTF-8" standalone="no"?>
<svg
   width="57.175"
   height="60.945"
   viewBox="0 0 57.175 60.945"
   version="1.1"
   id="svg28"
   sodipodi:docname="dante.svg"
   inkscape:export-batch-path="/Users/sraab/Desktop"
   inkscape:version="1.5-dev (85a417c, 2025-05-30)"
   xmlns:inkscape="http://www.inkscape.org/namespaces/inkscape"
   xmlns:sodipodi="http://sodipodi.sourceforge.net/DTD/sodipodi-0.dtd"
   xmlns="http://www.w3.org/2000/svg"
   xmlns:svg="http://www.w3.org/2000/svg">
  <sodipodi:namedview
     id="namedview28"
     pagecolor="#ffffff"
     bordercolor="#666666"
     borderopacity="1.0"
     inkscape:showpageshadow="2"
     inkscape:pageopacity="0.0"
     inkscape:pagecheckerboard="0"
     inkscape:deskcolor="#d1d1d1"
     showgrid="false"
     inkscape:current-layer="svg28" />
  <defs
     id="defs5">
    <clipPath
       id="clip-1">
      <path
         clip-rule="nonzero"
         d="M 0 23 L 56.363281 23 L 56.363281 60.484375 L 0 60.484375 Z M 0 23 "
         id="path2" />
    </clipPath>
    <clipPath
       id="clip-3">
      <path
         clip-rule="nonzero"
         d="M 0 23 L 56.363281 23 L 56.363281 60.484375 L 0 60.484375 Z M 0 23 "
         id="path4" />
    </clipPath>
    <clipPath
       id="clip-4">
      <path
         clip-rule="nonzero"
         d="M 0 18 L 56.363281 18 L 56.363281 60.484375 L 0 60.484375 Z M 0 18 "
         id="path5" />
    </clipPath>
    <clipPath
       clipPathUnits="userSpaceOnUse"
       id="clipPath28">
      <path
         clip-rule="nonzero"
         d="M 0,0.40625 H 56.363281 V 60.484375 H 0 Z m 0,0"
         id="path29" />
    </clipPath>
    <clipPath
       clipPathUnits="userSpaceOnUse"
       id="clipPath33">
      <path
         clip-rule="nonzero"
         d="M 0,23 H 56.363281 V 60.484375 H 0 Z"
         id="path34"
         sodipodi:nodetypes="ccccc" />
    </clipPath>
  </defs>
  <g
     clip-path="url(#clip-1)"
     id="g7">
    <path
       fill-rule="nonzero"
       fill="rgb(92.871094%, 83.229065%, 14.369202%)"
       fill-opacity="1"
       d="M 12.015625 31.285156 C 5.140625 32.484375 -5.8125 44.921875 5.757812 55.984375 C 17.351562 67.050781 77.683594 59.644531 48.480469 23.628906 C 23.890625 36.84375 32.332031 24.746094 12.015625 31.285156 Z M 12.015625 31.285156 "
       id="path7" />
  </g>
  <path
     fill-rule="nonzero"
     fill="rgb(92.871094%, 83.229065%, 14.369202%)"
     fill-opacity="1"
     d="M 36.800781 21.363281 C 36.800781 11.71875 30.546875 3.898438 22.828125 3.898438 C 15.113281 3.898438 8.859375 11.71875 8.859375 21.363281 C 8.859375 31.007812 15.113281 38.828125 22.828125 38.828125 C 30.546875 38.828125 36.800781 31.007812 36.800781 21.363281 Z M 36.800781 21.363281 "
     id="path8" />
  <path
     fill-rule="nonzero"
     fill="rgb(87.5%, 50%, 12.5%)"
     fill-opacity="1"
     d="M 9.027344 22.144531 C 15.648438 20.527344 12.796875 26.867188 23.109375 24.996094 C 0 39.527344 5.195312 25.023438 9.027344 22.144531 Z M 9.027344 22.144531 "
     id="path9" />
  <path
     fill-rule="nonzero"
     fill="rgb(100%, 99.234009%, 85.00061%)"
     fill-opacity="1"
     d="M 22.957031 19.917969 C 23.617188 18.105469 23.101562 16.253906 21.808594 15.78125 C 20.511719 15.3125 18.925781 16.398438 18.269531 18.210938 C 17.609375 20.023438 18.121094 21.875 19.417969 22.347656 C 20.710938 22.820312 22.296875 21.730469 22.957031 19.917969 Z M 22.957031 19.917969 "
     id="path10" />
  <path
     fill-rule="nonzero"
     fill="rgb(0%, 0%, 0%)"
     fill-opacity="1"
     d="M 22.242188 19.957031 C 22.621094 18.921875 22.503906 17.929688 21.988281 17.738281 C 21.46875 17.550781 20.742188 18.238281 20.367188 19.273438 C 19.992188 20.308594 20.105469 21.300781 20.621094 21.488281 C 21.140625 21.675781 21.867188 20.992188 22.242188 19.957031 Z M 22.242188 19.957031 "
     id="path11" />
  <path
     fill-rule="nonzero"
     fill="rgb(100%, 99.234009%, 85.00061%)"
     fill-opacity="1"
     d="M 14.800781 17.765625 C 15.402344 16.109375 14.96875 14.429688 13.828125 14.015625 C 12.6875 13.597656 11.273438 14.605469 10.671875 16.265625 C 10.066406 17.921875 10.503906 19.601562 11.640625 20.015625 C 12.78125 20.433594 14.195312 19.425781 14.800781 17.765625 Z M 14.800781 17.765625 "
     id="path12" />
  <path
     fill-rule="nonzero"
     fill="rgb(0%, 0%, 0%)"
     fill-opacity="1"
     d="M 14.179688 17.839844 C 14.515625 16.90625 14.457031 16.027344 14.042969 15.875 C 13.625 15.726562 13.015625 16.359375 12.675781 17.292969 C 12.335938 18.222656 12.398438 19.101562 12.8125 19.253906 C 13.226562 19.40625 13.839844 18.769531 14.179688 17.839844 Z M 14.179688 17.839844 "
     id="path13" />
  <path
     fill-rule="nonzero"
     fill="rgb(79.998779%, 0%, 0%)"
     fill-opacity="1"
     d="M 32.56395,28.236463 C 34.239731,27.279432 38.753906,16.988281 37.761719,13.003906 32.6875,-6.671875 4.214844,-0.179688 9.28125,18.828125 9.820312,11 18.417969,4.601562 24.210938,10.035156 c 7.675781,7.203125 6.591293,19.213026 8.353012,18.201307 z"
     id="path33"
     style="fill:#f0f0f0ff"
     sodipodi:nodetypes="ccccc" />
  <path
     fill-rule="nonzero"
     fill="#f0f0f0"
     fill-opacity="1"
     d="M 11.371094,31.285156 C 5.140625,32.484375 -5.8125,44.921875 5.757812,55.984375 17.351562,67.050781 77.683594,59.644531 48.480469,23.628906 22.269531,36.84375 26.023668,30.030738 13.325387,39.428 Z"
     id="path14"
     clip-path="url(#clipPath33)"
     sodipodi:nodetypes="ccccc" />
  <path
     fill-rule="nonzero"
     fill="rgb(79.998779%, 0%, 0%)"
     fill-opacity="1"
     d="M 36.652344 23.667969 C 38.328125 22.710938 38.753906 16.988281 37.761719 13.003906 C 32.6875 -6.671875 4.214844 -0.179688 9.28125 18.828125 C 9.820312 11 18.417969 4.601562 24.210938 10.035156 C 31.886719 17.238281 34.890625 24.679688 36.652344 23.667969 Z M 36.652344 23.667969 "
     id="path15" />
  <path
     fill-rule="nonzero"
     fill="rgb(29.998779%, 59.999084%, 9.999084%)"
     fill-opacity="1"
     d="M 12.296875 11.144531 C 12.390625 10.800781 11.800781 10.34375 10.980469 10.125 C 10.160156 9.90625 9.421875 10.003906 9.328125 10.347656 C 9.238281 10.691406 9.828125 11.144531 10.648438 11.367188 C 11.46875 11.585938 12.207031 11.484375 12.296875 11.144531 Z M 12.296875 11.144531 "
     id="path16" />
  <path
     fill-rule="nonzero"
     fill="rgb(29.998779%, 59.999084%, 9.999084%)"
     fill-opacity="1"
     d="M 12.296875 11.746094 C 12.207031 11.402344 11.46875 11.300781 10.648438 11.523438 C 9.828125 11.742188 9.238281 12.195312 9.328125 12.539062 C 9.421875 12.882812 10.160156 12.984375 10.980469 12.761719 C 11.800781 12.542969 12.390625 12.085938 12.296875 11.746094 Z M 12.296875 11.746094 "
     id="path17" />
  <g
     clip-path="url(#clip-3)"
     id="g18">
    <path
       fill-rule="nonzero"
       fill="#c90000"
       fill-opacity="1"
       d="m 10.535156,31.421875 c -5.394531,1.0625 -16.347656,13.5 -4.777344,24.5625 11.59375,11.066406 71.925782,3.660156 42.722657,-32.355469 C 25.066406,35.335938 31.383336,27.163625 12.315893,43.19287 Z"
       id="path18"
       sodipodi:nodetypes="ccccc" />
  </g>
  <path
     fill="none"
     stroke-width="0.3985"
     stroke-linecap="butt"
     stroke-linejoin="miter"
     stroke="#000000"
     stroke-opacity="1"
     stroke-miterlimit="10"
     d="m 32.276827,17.062961 -1.500383,-2.739554 -1.592527,-2.119202 -2.296375,-1.58976"
     id="path20" />
  <path
     fill-rule="nonzero"
     fill="#4a9617"
     fill-opacity="1"
     d="m 28.201378,11.324453 c -0.272744,0.229268 -0.937566,-0.107458 -1.487514,-0.754237 -0.547723,-0.64999 -0.774773,-1.3582884 -0.502029,-1.5875566 0.269529,-0.2314937 0.932133,0.1084454 1.482079,0.7552237 0.549948,0.6467789 0.774773,1.3582899 0.507464,1.5865699 z m 0,0"
     id="path21" />
  <path
     fill-rule="nonzero"
     fill="#4a9617"
     fill-opacity="1"
     d="m 30.49627,12.875179 c -0.281144,0.21395 -0.926944,-0.157116 -1.442798,-0.832553 -0.510419,-0.676426 -0.700411,-1.397077 -0.419267,-1.611028 0.283368,-0.217163 0.929168,0.153904 1.442799,0.832553 0.515853,0.675437 0.702633,1.393865 0.419266,1.611028 z m 0,0"
     id="path22" />
  <path
     fill-rule="nonzero"
     fill="#4a9617"
     fill-opacity="1"
     d="m 31.600379,15.535185 c -0.353285,0.06424 -0.756235,-0.561543 -0.910653,-1.395345 -0.148981,-0.834791 0.01011,-1.565575 0.357963,-1.628824 0.351061,-0.06103 0.756235,0.561543 0.908429,1.398557 0.148982,0.83479 -0.0079,1.562363 -0.355739,1.625612 z m 0,0"
     id="path23" />
  <path
     fill-rule="nonzero"
     fill="#4a9617"
     fill-opacity="1"
     d="m 28.082052,11.332112 c -0.05707,0.350075 -0.784882,0.516102 -1.622146,0.373562 -0.837264,-0.14254 -1.463054,-0.542512 -1.40599,-0.892584 0.06028,-0.347851 0.784881,-0.516101 1.622145,-0.373562 0.837265,0.142542 1.468489,0.541525 1.405991,0.892584 z m 0,0"
     id="path25" />
  <path
     fill-rule="nonzero"
     fill="#4a9617"
     fill-opacity="1"
     d="m 30.381638,12.924096 c -0.06028,0.347852 -0.784881,0.516103 -1.622145,0.373562 -0.837264,-0.14254 -1.466266,-0.544736 -1.40599,-0.892584 0.05707,-0.350074 0.78488,-0.516102 1.622146,-0.373562 0.837263,0.142541 1.465275,0.539301 1.405989,0.892584 z m 0,0"
     id="path26" />
  <path
     fill-rule="nonzero"
     fill="#4a9617"
     fill-opacity="1"
     d="m 31.944767,15.174978 c -0.08943,0.341923 -0.831328,0.445941 -1.651052,0.230025 -0.819724,-0.215916 -1.41315,-0.669498 -1.323718,-1.011425 0.08943,-0.341921 0.831328,-0.445939 1.651052,-0.230024 0.821948,0.212704 1.415373,0.666286 1.323718,1.011424 z m 0,0"
     id="path27" />
  <circle
     style="fill:#980000;stroke-width:0.722507;stroke-linecap:round;stroke-linejoin:round;paint-order:stroke markers fill;fill-opacity:1"
     id="path30"
     cx="10.131212"
     cy="48.913235"
     r="0.62275559" />
  <circle
     style="fill:#980000;stroke-width:0.722507;stroke-linecap:round;stroke-linejoin:round;paint-order:stroke markers fill;fill-opacity:1"
     id="circle30"
     cx="9.7213411"
     cy="51.198673"
     r="0.62275559" />
  <circle
     style="fill:#980000;stroke-width:0.722507;stroke-linecap:round;stroke-linejoin:round;paint-order:stroke markers fill;fill-opacity:1"
     id="circle31"
     cx="9.6495247"
     cy="53.521011"
     r="0.62275559" />
  <circle
     style="fill:#980000;stroke-width:0.722507;stroke-linecap:round;stroke-linejoin:round;paint-order:stroke markers fill;fill-opacity:1"
     id="circle32"
     cx="9.9344091"
     cy="55.762012"
     r="0.62275559" />
  <circle
     style="fill:#980000;stroke-width:0.722507;stroke-linecap:round;stroke-linejoin:round;paint-order:stroke markers fill;fill-opacity:1"
     id="circle33"
     cx="10.853743"
     cy="57.864929"
     r="0.62275559" />
  <circle
     style="fill:#980000;stroke-width:0.722507;stroke-linecap:round;stroke-linejoin:round;paint-order:stroke markers fill;fill-opacity:1"
     id="circle34"
     cx="11.510014"
     cy="44.597088"
     r="0.62275559" />
  <circle
     style="fill:#980000;stroke-width:0.722507;stroke-linecap:round;stroke-linejoin:round;paint-order:stroke markers fill;fill-opacity:1"
     id="circle35"
     cx="10.719236"
     cy="46.711117"
     r="0.62275559" />
  <path
     fill="none"
     stroke-width="0.3985"
     stroke-linecap="butt"
     stroke-linejoin="miter"
     stroke="#000000"
     stroke-opacity="1"
     stroke-miterlimit="10"
     d="m 35.539615,24.993488 -0.672274,-3.050304 -0.93462,-2.480653 -1.758663,-2.169743"
     id="path35" />
  <path
     fill-rule="nonzero"
     fill="#4a9617"
     fill-opacity="1"
     d="m 32.433718,18.250041 c -0.341922,-0.08943 -0.442728,-0.829105 -0.230024,-1.651052 0.215915,-0.819725 0.669499,-1.413151 1.011424,-1.323718 0.345134,0.09165 0.44594,0.831327 0.230025,1.651052 -0.212703,0.821947 -0.666286,1.415374 -1.011425,1.323718 z m 0,0"
     id="path24" />
  <path
     fill-rule="nonzero"
     fill="#4a9617"
     fill-opacity="1"
     d="m 35.004369,20.474483 c -0.329847,0.126561 -0.845737,-0.410659 -1.15157,-1.20362 -0.300338,-0.792386 -0.280699,-1.537402 0.04915,-1.663965 0.332882,-0.129022 0.848772,0.408199 1.15157,1.203619 0.305832,0.792961 0.283733,1.534943 -0.04915,1.663966 z m 0,0"
     id="path37" />
  <path
     fill-rule="nonzero"
     fill="#4a9617"
     fill-opacity="1"
     d="m 35.318555,23.337344 c -0.357128,-0.03737 -0.568502,-0.751017 -0.482997,-1.594676 0.091,-0.843083 0.448567,-1.499971 0.800204,-1.463174 0.354093,0.03983 0.568502,0.751017 0.479962,1.597135 -0.091,0.843083 -0.445546,1.497508 -0.797169,1.460715 z m 0,0"
     id="path38" />
  <path
     fill-rule="nonzero"
     fill="#4a9617"
     fill-opacity="1"
     d="m 35.357453,26.176954 c -0.303144,-0.181693 -0.192563,-0.919969 0.242022,-1.649336 0.437044,-0.726334 1.038792,-1.168819 1.341938,-0.987123 0.305605,0.184724 0.195022,0.923003 -0.242022,1.649337 -0.434583,0.729367 -1.03633,1.171852 -1.341938,0.987122 z m 0,0"
     id="path39" />
  <path
     fill-rule="nonzero"
     fill="#4a9617"
     fill-opacity="1"
     d="m 34.88062,20.489305 c -0.155373,0.317007 -0.898086,0.275392 -1.661824,-0.09614 -0.763738,-0.371527 -1.254778,-0.93392 -1.099409,-1.250925 0.152914,-0.32004 0.898085,-0.275391 1.661825,0.09614 0.763737,0.371528 1.25535,0.928426 1.099408,1.250925 z m 0,0"
     id="path41" />
  <path
     fill-rule="nonzero"
     fill="#4a9617"
     fill-opacity="1"
     d="m 35.750109,23.088118 c -0.181692,0.303145 -0.923003,0.195023 -1.649336,-0.242022 -0.726333,-0.437044 -1.168818,-1.03879 -0.987122,-1.341939 0.181692,-0.303142 0.923003,-0.195021 1.649336,0.242023 0.729368,0.434585 1.171852,1.03633 0.987122,1.341938 z m 0,0"
     id="path42" />
  <path
     fill-rule="nonzero"
     fill="#4a9617"
     fill-opacity="1"
     d="m 35.501933,26.255949 c -0.312468,0.172816 -0.89742,-0.288315 -1.308473,-1.031187 -0.411055,-0.742873 -0.494497,-1.484791 -0.185062,-1.655147 0.312469,-0.172816 0.89742,0.288315 1.308475,1.031187 0.411053,0.742873 0.492035,1.481756 0.18506,1.655147 z m 0,0"
     id="path43" />
  <path
     fill-rule="nonzero"
     fill="#4a9617"
     fill-opacity="1"
     d="m 32.59455,18.285368 c -0.251496,0.253479 -0.94226,-0.02519 -1.545075,-0.623051 -0.602817,-0.597861 -0.890888,-1.286642 -0.641614,-1.536909 0.251497,-0.253479 0.94226,0.02519 1.545076,0.62305 0.602816,0.597862 0.887675,1.28442 0.641613,1.53691 z m 0,0"
     id="path28" />
</svg>
