<?xml version="1.0" encoding="UTF-8" standalone="no"?>
<!-- Created with Inkscape (http://www.inkscape.org/) -->

<svg
   version="1.1"
   id="svg2"
   xml:space="preserve"
   width="312.72296"
   height="149.24117"
   viewBox="0 0 274.85416 131.16899"
   sodipodi:docname="Hang_gliding_bear.svg"
   inkscape:version="1.5-dev (85a417c, 2025-05-30)"
   inkscape:export-batch-path="/Users/sraab/Desktop"
   xmlns:inkscape="http://www.inkscape.org/namespaces/inkscape"
   xmlns:sodipodi="http://sodipodi.sourceforge.net/DTD/sodipodi-0.dtd"
   xmlns="http://www.w3.org/2000/svg"
   xmlns:svg="http://www.w3.org/2000/svg"
   xmlns:rdf="http://www.w3.org/1999/02/22-rdf-syntax-ns#"
   xmlns:cc="http://creativecommons.org/ns#"
   xmlns:dc="http://purl.org/dc/elements/1.1/"><metadata
     id="metadata8"><rdf:RDF><cc:Work
         rdf:about=""><dc:format>image/svg+xml</dc:format><dc:type
           rdf:resource="http://purl.org/dc/dcmitype/StillImage" /><dc:title /></cc:Work></rdf:RDF></metadata><defs
     id="defs6"><clipPath
       id="clip-0"><path
         clip-rule="nonzero"
         d="M 0 0.0976562 L 56.363281 0.0976562 L 56.363281 61.515625 L 0 61.515625 Z M 0 0.0976562 "
         id="path1" /></clipPath><clipPath
       id="clip-1"><path
         clip-rule="nonzero"
         d="M 0 24 L 56.363281 24 L 56.363281 61.515625 L 0 61.515625 Z M 0 24 "
         id="path2" /></clipPath><clipPath
       id="clip-2"><path
         clip-rule="nonzero"
         d="M 0 24 L 56.363281 24 L 56.363281 61.515625 L 0 61.515625 Z M 0 24 "
         id="path3" /></clipPath><clipPath
       id="clip-3"><path
         clip-rule="nonzero"
         d="M 0 42 L 56.363281 42 L 56.363281 59 L 0 59 Z M 0 42 "
         id="path4" /></clipPath></defs><sodipodi:namedview
     pagecolor="#ffffff"
     bordercolor="#666666"
     borderopacity="1"
     objecttolerance="10"
     gridtolerance="10"
     guidetolerance="10"
     inkscape:pageopacity="0"
     inkscape:pageshadow="2"
     inkscape:window-width="640"
     inkscape:window-height="480"
     id="namedview4"
     showgrid="false"
     inkscape:zoom="1.9489947"
     inkscape:cx="101.5032"
     inkscape:cy="6.0454875"
     inkscape:current-layer="g10"
     fit-margin-top="1"
     fit-margin-left="1"
     fit-margin-right="1"
     fit-margin-bottom="1"
     inkscape:showpageshadow="2"
     inkscape:pagecheckerboard="0"
     inkscape:deskcolor="#d1d1d1" /><g
     id="g10"
     inkscape:groupmode="layer"
     inkscape:label="document"
     transform="matrix(1.3333333,0,0,-1.3333333,299.35677,142.61729)"><g
       clip-path="url(#clip-1)"
       id="g6"
       transform="matrix(0.65917969,0,0,-0.65917969,-159.81514,61.999321)"><path
         fill-rule="nonzero"
         fill="#ffe3c2"
         fill-opacity="1"
         d="M 12.015625,32.3125 C 5.140625,33.515625 -5.8125,45.949219 5.757812,57.015625 17.351562,68.082031 77.683594,60.675781 48.480469,24.65625 23.890625,37.875 32.332031,25.773438 12.015625,32.3125 Z m 0,0"
         id="path6" /></g><path
       fill-rule="nonzero"
       fill="#ffe3c2"
       fill-opacity="1"
       d="m -135.55681,47.237301 c 0,6.357479 -4.12245,11.51247 -9.21049,11.51247 -5.08547,0 -9.20792,-5.154991 -9.20792,-11.51247 0,-6.357479 4.12245,-11.51247 9.20792,-11.51247 5.08804,0 9.21049,5.154991 9.21049,11.51247 z m 0,0"
       id="path7"
       style="stroke-width:0.65918" /><path
       fill-rule="nonzero"
       fill="#de801f"
       fill-opacity="1"
       d="m -153.8645,46.722317 c 4.36449,1.068591 2.4848,-3.11308 9.28259,-1.879693 -15.23323,-9.578704 -11.80859,-0.01802 -9.28259,1.879693 z m 0,0"
       id="path8"
       style="stroke-width:0.65918" /><path
       fill-rule="nonzero"
       fill="#fffcd9"
       fill-opacity="1"
       d="m -144.68233,48.190021 c 0.43516,1.194764 0.0953,2.415276 -0.75703,2.726841 -0.85487,0.308991 -1.90029,-0.406837 -2.33288,-1.601601 -0.43516,-1.194763 -0.0978,-2.415275 0.75703,-2.72684 0.8523,-0.30899 1.89772,0.406837 2.33288,1.6016 z m 0,0"
       id="path9"
       style="stroke-width:0.65918" /><path
       fill-rule="nonzero"
       fill="#000000"
       fill-opacity="1"
       d="m -145.15354,48.166847 c 0.24977,0.682354 0.17252,1.336384 -0.16737,1.45998 -0.34247,0.123597 -0.8214,-0.329589 -1.06859,-1.011944 -0.2472,-0.682354 -0.17252,-1.336383 0.16737,-1.459979 0.34246,-0.123597 0.8214,0.327014 1.06859,1.011943 z m 0,0"
       id="path10"
       style="stroke-width:0.65918" /><path
       fill-rule="nonzero"
       fill="#fffcd9"
       fill-opacity="1"
       d="m -150.05877,49.608803 c 0.39654,1.091766 0.11073,2.198982 -0.64115,2.474498 -0.75188,0.272942 -1.684,-0.391388 -2.08054,-1.485729 -0.39911,-1.091766 -0.11072,-2.198982 0.63858,-2.471924 0.75188,-0.272941 1.684,0.391388 2.08311,1.483155 z m 0,0"
       id="path11"
       style="stroke-width:0.65918" /><path
       fill-rule="nonzero"
       fill="#000000"
       fill-opacity="1"
       d="m -150.46818,49.562454 c 0.22145,0.612831 0.18282,1.192188 -0.0901,1.29261 -0.27552,0.09785 -0.6772,-0.31929 -0.90122,-0.934696 -0.22402,-0.612831 -0.18282,-1.192188 0.0901,-1.29261 0.27294,-0.09785 0.6772,0.31929 0.90122,0.934696 z m 0,0"
       id="path12"
       style="stroke-width:0.65918" /><g
       clip-path="url(#clip-2)"
       id="g14"
       transform="matrix(0.65917969,0,0,-0.65917969,-159.81514,61.999321)"><path
         fill-rule="nonzero"
         fill="#2e0d05"
         fill-opacity="1"
         d="M 11.371094,32.3125 C 5.140625,33.515625 -5.8125,45.949219 5.757812,57.015625 17.351562,68.082031 77.683594,60.675781 48.480469,24.65625 22.269531,37.875 32.332031,25.804688 12.015625,44.75 Z m 0,0"
         id="path13" /><path
         fill-rule="nonzero"
         fill="#57170d"
         fill-opacity="1"
         d="m 11.574219,32.574219 c -6.234375,1.203125 -17.195313,13.648437 -5.617188,24.71875 11.601563,11.070312 71.972657,3.664062 42.75,-32.382813 -24.445312,9.5 -22.996093,23.101563 -37.460937,33.398438 -5.582032,-9.21875 0.328125,-25.734375 0.328125,-25.734375 z m 0,0"
         id="path14" /></g><g
       clip-path="url(#clip-3)"
       id="g15"
       transform="matrix(0.65917969,0,0,-0.65917969,-159.81514,61.999321)"><path
         fill-rule="nonzero"
         fill="#2e0d05"
         fill-opacity="1"
         d="m 19.550781,58.71875 c -2.371093,0.222656 -4.644531,0.238281 -6.753906,-0.0078 -3.375,-0.402344 -6.703125,-2.46875 -9.496094,-4.34375 0,0 -2.425781,-4.128907 -2.332031,-6.9375 0,0 2.234375,1.527343 4.808594,3.25 2.574218,1.734374 5.871094,3.425781 7.546875,3.621093 6.730469,0.800781 17.695312,-2.167969 26.695312,-5.503906 C 49.015625,45.468762 56.667969,42.1797 56.667969,42.1797 l -0.5,4.625 c 0,0 -5.363281,2.738281 -14.613281,6.160156 -6.933594,2.566406 -14.898438,5.078125 -22.003907,5.753906 z m 0,0"
         id="path15" /></g><path
       fill-rule="nonzero"
       fill="#57170d"
       fill-opacity="1"
       d="m -134.02988,49.827671 c 0.73127,1.568126 -2.41528,4.583359 -7.02954,6.733418 -4.61168,2.152633 -8.9427,2.626419 -9.67655,1.053142 -0.73128,-1.565552 2.41528,-4.580783 7.02953,-6.730842 4.61169,-2.152634 8.94528,-2.623845 9.67656,-1.055718 z m 0,0"
       id="path17"
       style="stroke-width:0.65918" /><path
       sodipodi:nodetypes="cccccccccc"
       inkscape:connector-curvature="0"
       id="path139"
       d="m -223.76758,97.349609 104.55541,8.863361 100.08522,-82.86922 c -16.46132,10.803609 -27.64277,10.988325 -37.62565,8.678669 -10.1085,7.565377 -18.8128,9.949993 -30.12009,8.560448 -9.34942,7.392657 -22.54252,8.71479 -34.24179,5.072858 -5.90136,8.271827 -15.56714,13.892085 -29.80304,11.730984 -5.23191,9.940482 -13.09314,13.289984 -26.94956,12.365091 -2.47871,11.595736 -13.65838,13.584063 -25.3643,12.999198 -1.66208,10.979558 -20.5362,14.598611 -20.5362,14.598611"
       style="fill:#e9c6af;fill-rule:evenodd;stroke:none;stroke-width:0.75px;stroke-linecap:butt;stroke-linejoin:miter;stroke-opacity:1" /><path
       sodipodi:nodetypes="cccccccccccc"
       inkscape:connector-curvature="0"
       d="m -86.87269,40.582867 -32.33948,65.630103 62.45957,-74.19055 c -8.97724,7.232817 -17.13813,9.875765 -30.12009,8.560447 z m -64.04483,16.803842 31.70535,48.826261 -1.90231,-60.557245 c -9.46902,11.5065 -17.72034,12.872287 -29.80304,11.730984 z m -52.31386,25.364289 84.01921,23.461972 -58.65491,-36.461169 c -5.07916,7.882637 -7.56276,12.373221 -25.3643,12.999197 z"
       style="fill:#deaa87;fill-rule:evenodd;stroke:none;stroke-width:0.75px;stroke-linecap:butt;stroke-linejoin:miter;stroke-opacity:1"
       id="path145" /><path
       fill-rule="nonzero"
       fill="#2e0d05"
       fill-opacity="1"
       d="m -133.60245,51.032734 c 0.73128,1.568127 -2.4127,4.583359 -7.02696,6.733417 -4.61168,2.152634 -8.94527,2.623845 -9.67397,1.058293 -0.73128,-1.573277 2.4127,-4.585934 7.02696,-6.735992 4.61168,-2.152634 8.94784,-2.62642 9.67397,-1.055718 z m 0,0"
       id="path18"
       style="stroke-width:0.65918" /><g
       transform="matrix(-1,0,0,1,-248.41492,17.705822)"
       id="g430" /><path
       sodipodi:nodetypes="cccccccccccc"
       inkscape:connector-curvature="0"
       id="path133"
       d="m -111.1543,15.626953 -57.96856,26.85289 -54.64472,54.869766 55.125,-51.492187 42.08399,41.875 15.62073,-68.453994 91.81091,4.065322 z m -3.41963,4.523709 -13.76976,61.571988 -37.53125,-37.34375 z"
       style="color:#000000;font-style:normal;font-variant:normal;font-weight:normal;font-stretch:normal;font-size:medium;line-height:normal;font-family:sans-serif;font-variant-ligatures:normal;font-variant-position:normal;font-variant-caps:normal;font-variant-numeric:normal;font-variant-alternates:normal;font-feature-settings:normal;text-indent:0;text-align:start;text-decoration:none;text-decoration-line:none;text-decoration-style:solid;text-decoration-color:#000000;letter-spacing:normal;word-spacing:normal;text-transform:none;writing-mode:lr-tb;direction:ltr;text-orientation:mixed;dominant-baseline:auto;baseline-shift:baseline;text-anchor:start;white-space:normal;shape-padding:0;clip-rule:nonzero;display:inline;overflow:visible;visibility:visible;isolation:auto;mix-blend-mode:normal;color-interpolation:sRGB;color-interpolation-filters:linearRGB;solid-color:#000000;solid-opacity:1;vector-effect:none;fill:#784421;fill-opacity:1;fill-rule:evenodd;stroke:none;stroke-width:3;stroke-linecap:butt;stroke-linejoin:miter;stroke-miterlimit:4;stroke-dasharray:none;stroke-dashoffset:0;stroke-opacity:1;color-rendering:auto;image-rendering:auto;shape-rendering:auto;text-rendering:auto;enable-background:accumulate" /><path
       fill-rule="nonzero"
       fill="#57170d"
       fill-opacity="1"
       d="m -131.9854,51.797486 c 0.73128,1.565551 -2.79121,4.755878 -7.86381,7.124805 -5.07516,2.363777 -9.78212,3.012657 -10.5134,1.444531 -0.73127,-1.568128 2.79122,-4.758454 7.86381,-7.124806 5.07517,-2.366352 9.77955,-3.015232 10.5134,-1.44453 z m 0,0"
       id="path19"
       style="stroke-width:0.65918" /><path
       fill-rule="nonzero"
       fill="#f0f0f0"
       fill-opacity="1"
       d="m -153.52203,47.886181 c -0.54846,0 -0.99907,-0.399113 -1.08662,-0.924397 -0.005,0 -0.0129,0.0026 -0.018,0.0026 -0.30385,0 -0.55104,-0.247192 -0.55104,-0.553608 0,-0.30384 0.46349,-1.241111 0.46349,-1.241111 0,0 0.29096,0.432586 0.47893,0.80595 0.31929,-0.396538 0.71326,-0.731278 0.71326,-0.731278 0,0 0.39911,0.33474 0.7184,0.733852 0.32186,-0.29354 0.75703,-0.489234 0.75703,-0.489234 0,0 0.18024,0.0927 0.38623,0.218868 0.0798,-0.569057 0.57164,-1.127815 0.57164,-1.127815 0,0 0.46606,0.193119 0.89607,0.46606 -0.003,-0.03605 -0.0103,-0.0721 -0.0103,-0.108146 0,-0.612831 1.10464,-1.107216 1.10464,-1.107216 0,0 0.22916,0.108146 0.47378,0.272941 0.13132,-0.280666 0.37594,-0.494385 0.67721,-0.587081 -0.0155,-0.0824 -0.018,-0.16737 -0.0257,-0.252343 -0.67206,-0.0515 -1.25914,-0.393962 -1.62735,-0.911522 -0.018,0.0026 -0.0335,0.0051 -0.0515,0.0051 -0.56649,0 -1.0789,-0.221443 -1.47028,-0.574208 -0.59224,-0.04635 -1.11237,-0.324439 -1.48058,-0.746726 -0.97847,-0.306416 -2.08569,-2.847863 -2.08569,-2.847863 0,0 0.39654,-0.249767 0.91667,-0.473785 -0.24719,-0.357914 -0.39396,-0.787926 -0.39396,-1.253987 0,-0.527859 0.19054,-1.004219 0.49954,-1.385307 -0.309,-0.378513 -0.49954,-0.857448 -0.49954,-1.382732 0,-1.220513 1.26429,-3.586865 1.26429,-3.586865 0,0 1.08146,0.81625 1.98011,1.735497 0,-0.123597 0,-0.239468 0,-0.360489 0,-1.423931 0.92697,-3.2444 0.92697,-3.2444 0,0 1.56555,1.176738 2.4024,2.363777 0.55361,-0.49181 0.99135,-0.841999 0.99135,-0.841999 0,0 0.5948,1.6119 0.86775,2.912235 0.36306,-0.278091 0.62828,-0.466061 0.62828,-0.466061 0,0 1.12781,1.761246 1.32093,2.997208 0.37851,0.05922 0.7184,0.213719 1.00937,0.435161 0.23432,-0.352764 0.40941,-0.605105 0.40941,-0.605105 0,0 1.88484,2.435874 2.23761,3.803157 0.51498,-0.442886 0.95787,-0.754451 0.95787,-0.754451 0,0 1.86939,1.76382 1.86939,2.984333 0,0.203418 -0.036,0.396537 -0.0875,0.584506 1.08662,0.139046 1.92862,1.055718 1.92862,2.180958 0,1.220512 -0.99135,2.211857 -2.21186,2.211857 -0.81367,0 -1.51405,-0.442886 -1.89771,-1.099491 -0.26522,0.113297 -0.55876,0.177669 -0.86518,0.177669 -0.38366,0 -0.739,-0.105571 -1.05056,-0.278091 -0.40684,0.504684 -1.01967,0.831699 -1.7149,0.831699 -0.60511,0 -1.15099,-0.244617 -1.5501,-0.636005 -0.30899,0.164795 -0.65661,0.267792 -1.03255,0.267792 -0.31671,0 -0.6154,-0.06952 -0.88577,-0.187969 -0.19054,0.329589 -0.54588,0.556182 -0.9553,0.556182 -0.19827,0 -0.38108,-0.05665 -0.54073,-0.14677 -0.19827,0.308991 -0.54073,0.514984 -0.9347,0.514984 -0.13389,0 -0.26006,-0.02833 -0.38108,-0.0721 -0.0541,0.556182 -0.52014,0.993919 -1.09177,0.993919 -0.1442,0 -0.28324,-0.02832 -0.40941,-0.07982 -0.12875,0.468636 -0.55361,0.81625 -1.06602,0.81625 -0.23689,0 -0.45834,-0.07725 -0.63601,-0.205993 -0.20341,0.239467 -0.5021,0.391387 -0.83942,0.391387 z m 0,0"
       id="path16"
       style="stroke-width:0.65918" /></g></svg>
