<?xml version="1.0" encoding="UTF-8" standalone="no"?>
<!-- Created with Inkscape (http://www.inkscape.org/) -->

<svg
   version="1.1"
   id="svg2"
   xml:space="preserve"
   width="124.10842"
   height="128.3114"
   viewBox="0 0 109.07967 112.7737"
   sodipodi:docname="Passepartout_open.svg"
   inkscape:version="1.5-dev (85a417c, 2025-05-30)"
   inkscape:export-batch-path="/Users/sraab/Desktop"
   xmlns:inkscape="http://www.inkscape.org/namespaces/inkscape"
   xmlns:sodipodi="http://sodipodi.sourceforge.net/DTD/sodipodi-0.dtd"
   xmlns="http://www.w3.org/2000/svg"
   xmlns:svg="http://www.w3.org/2000/svg"
   xmlns:rdf="http://www.w3.org/1999/02/22-rdf-syntax-ns#"
   xmlns:cc="http://creativecommons.org/ns#"
   xmlns:dc="http://purl.org/dc/elements/1.1/"><metadata
     id="metadata8"><rdf:RDF><cc:Work
         rdf:about=""><dc:format>image/svg+xml</dc:format><dc:type
           rdf:resource="http://purl.org/dc/dcmitype/StillImage" /></cc:Work></rdf:RDF></metadata><defs
     id="defs6"><clipPath
       clipPathUnits="userSpaceOnUse"
       id="clipPath76"><path
         d="m 95.24538,-96.37926 c 8.50401,12.5858 14.62666,34.0161 25.51205,39.11829 9.18448,4.08229 24.15112,-10.54489 17.34801,-10.88487 -21.77027,23.81117 -23.81114,-24.83159 -36.05696,-32.65566 z"
         id="path74"
         inkscape:connector-curvature="0" /></clipPath></defs><sodipodi:namedview
     pagecolor="#ffffff"
     bordercolor="#666666"
     borderopacity="1"
     objecttolerance="10"
     gridtolerance="10"
     guidetolerance="10"
     inkscape:pageopacity="0"
     inkscape:pageshadow="2"
     inkscape:window-width="640"
     inkscape:window-height="480"
     id="namedview4"
     showgrid="false"
     inkscape:zoom="7.1847412"
     inkscape:cx="117.41567"
     inkscape:cy="22.60284"
     inkscape:current-layer="g10"
     fit-margin-top="0"
     fit-margin-left="0"
     fit-margin-right="0"
     fit-margin-bottom="0"
     inkscape:showpageshadow="2"
     inkscape:pagecheckerboard="0"
     inkscape:deskcolor="#d1d1d1"><inkscape:page
       x="0"
       y="0"
       width="109.07967"
       height="112.7737"
       id="page1"
       margin="3.3218505"
       bleed="0" /></sodipodi:namedview><g
     id="g10"
     inkscape:groupmode="layer"
     inkscape:label="80days"
     transform="matrix(1.3333333,0,0,-1.3333333,-232.22038,172.24451)"><g
       transform="translate(28.346,156.74)"
       id="g34" /><g
       transform="translate(28.346,156.74)"
       id="g54" /><path
       inkscape:connector-curvature="0"
       id="path174"
       style="fill:#b4b4b4;fill-opacity:1;fill-rule:nonzero;stroke:none"
       d="m 197.57621,50.15582 c 0,1.69073 -3.50267,3.06131 -7.82355,3.06131 -4.32088,0 -7.82355,-1.37058 -7.82355,-3.06131 0,-1.69074 3.50267,-3.06132 7.82355,-3.06132 4.32088,0 7.82355,1.37058 7.82355,3.06132 z" /><path
       inkscape:connector-curvature="0"
       id="path178"
       style="fill:#b4b4b4;fill-opacity:1;fill-rule:nonzero;stroke:none"
       d="m 214.9247,50.15582 c 0,1.69073 -3.50267,3.06131 -7.82354,3.06131 -4.32088,0 -7.82355,-1.37058 -7.82355,-3.06131 0,-1.69074 3.50267,-3.06132 7.82355,-3.06132 4.32087,0 7.82354,1.37058 7.82354,3.06132 z" /><path
       inkscape:connector-curvature="0"
       id="path182"
       style="fill:#b4b4b4;fill-opacity:1;fill-rule:nonzero;stroke:none"
       d="m 220.19714,117.16755 c 0,5.26027 -4.26418,9.52445 -9.52444,9.52445 -5.26026,0 -9.52444,-4.26418 -9.52444,-9.52445 0,-5.26025 4.26418,-9.52443 9.52444,-9.52443 5.26026,0 9.52444,4.26418 9.52444,9.52443 z" /><path
       inkscape:connector-curvature="0"
       id="path186"
       style="fill:#8c8c8c;fill-opacity:1;fill-rule:nonzero;stroke:none"
       d="m 215.7749,117.16755 c 0,2.8179 -2.28431,5.1022 -5.1022,5.1022 -2.8179,0 -5.1022,-2.2843 -5.1022,-5.1022 0,-2.8179 2.2843,-5.10219 5.1022,-5.10219 2.81789,0 5.1022,2.28429 5.1022,5.10219 z" /><path
       inkscape:connector-curvature="0"
       id="path190"
       style="fill:#b4b4b4;fill-opacity:1;fill-rule:nonzero;stroke:none"
       d="m 195.70556,117.16755 c 0,5.26027 -4.26416,9.52445 -9.52443,9.52445 -5.26027,0 -9.52445,-4.26418 -9.52445,-9.52445 0,-5.26025 4.26418,-9.52443 9.52445,-9.52443 5.26027,0 9.52443,4.26418 9.52443,9.52443 z" /><path
       inkscape:connector-curvature="0"
       id="path194"
       style="fill:#8c8c8c;fill-opacity:1;fill-rule:nonzero;stroke:none"
       d="m 191.28332,117.16755 c 0,2.8179 -2.28429,5.1022 -5.10219,5.1022 -2.8179,0 -5.1022,-2.2843 -5.1022,-5.1022 0,-2.8179 2.2843,-5.10219 5.1022,-5.10219 2.8179,0 5.10219,2.28429 5.10219,5.10219 z" /><path
       inkscape:connector-curvature="0"
       id="path198"
       style="fill:#b4b4b4;fill-opacity:1;fill-rule:nonzero;stroke:none"
       d="m 210.26473,59.51054 c 8.50403,12.55154 14.62668,34.0161 25.54581,39.11831 9.18449,4.08176 19.66141,-10.7489 17.34802,-10.8854 -22.99469,29.69609 -28.50539,-21.39605 -40.7512,-29.21959 z" /><path
       inkscape:connector-curvature="0"
       id="path202"
       style="fill:#8c8c8c;fill-opacity:1;fill-rule:nonzero;stroke:none"
       d="m 218.66651,74.64744 c 0,-22.45074 -8.16405,-25.17209 -20.23959,-25.17209 -12.07556,0 -20.2396,2.72135 -20.2396,25.17209 -0.33996,22.45074 8.84401,40.47922 20.2396,40.47922 11.39558,0 20.57954,-18.02848 20.23959,-40.47922 z" /><path
       inkscape:connector-curvature="0"
       id="path1"
       style="fill:#d35f5f;fill-opacity:1;fill-rule:nonzero;stroke:#989898;stroke-width:0.65917973;stroke-opacity:1;opacity:1"
       d="m 213.13056,105.62348 c 0,-6.872445 -8.73438,-20.756121 -14.63758,-23.567441 -5.90321,2.81132 -14.87888,16.694996 -14.87888,23.567441 4.72273,15.61909 24.79372,15.61909 29.51646,0 z"
       sodipodi:nodetypes="cccc" /><path
       inkscape:connector-curvature="0"
       id="path206"
       style="fill:#b4b4b4;fill-opacity:1;fill-rule:nonzero;stroke:none;stroke-width:0.97554"
       d="m 215.43493,105.19817 c 0,-7.12196 -10.20491,-17.804891 -17.00801,-20.71828 -6.8031,2.913389 -17.00803,13.59632 -17.00803,20.71828 5.44269,16.18617 28.57335,16.18617 34.01604,0 z" /><path
       inkscape:connector-curvature="0"
       id="path210"
       style="fill:#b4b4b4;fill-opacity:1;fill-rule:nonzero;stroke:none"
       d="m 216.01054,73.9263 c 1.54211,4.23698 0.93173,8.3488 -1.36333,9.1841 -2.29506,0.83533 -5.40564,-1.9222 -6.94774,-6.15919 -1.54211,-4.237 -0.93173,-8.34881 1.36333,-9.18413 2.29506,-0.83531 5.40564,1.92222 6.94774,6.15922 z" /><path
       inkscape:connector-curvature="0"
       id="path214"
       style="fill:#b4b4b4;fill-opacity:1;fill-rule:nonzero;stroke:none"
       d="m 189.15436,76.95121 c -1.54211,4.23699 -4.65269,6.99452 -6.94775,6.15919 -2.29506,-0.8353 -2.90543,-4.94712 -1.36333,-9.1841 1.5421,-4.237 4.6527,-6.99453 6.94776,-6.15922 2.29504,0.83532 2.90542,4.94713 1.36332,9.18413 z" /><path
       inkscape:connector-curvature="0"
       id="path218"
       style="fill:#464646;fill-opacity:1;fill-rule:nonzero;stroke:none"
       d="m 201.32827,86.495044 c 2.9596,0.5201 4.41553,-1.72477 7.37459,-2.24537 v 0.34048 c -2.92168,0.51335 -4.44925,2.41823 -7.37459,1.90489 z" /><path
       inkscape:connector-curvature="0"
       id="path222"
       style="fill:#464646;fill-opacity:1;fill-rule:nonzero;stroke:none"
       d="m 195.96763,86.495044 c -2.95959,0.5201 -4.41864,-1.72477 -7.37459,-2.24537 v 0.34048 c 2.9217,0.51335 4.44927,2.41823 7.37459,1.90489 z" /><path
       inkscape:connector-curvature="0"
       id="path226"
       style="fill:#464646;fill-opacity:1;fill-rule:nonzero;stroke:none"
       d="m 201.20579,86.953894 c 2.8267,1.0277 4.8271,0.09549 7.65384,-0.93169 v 0.33995 c -2.81636,1.0241 -4.83699,1.61582 -7.65384,0.59174 z" /><path
       inkscape:connector-curvature="0"
       id="path230"
       style="fill:#464646;fill-opacity:1;fill-rule:nonzero;stroke:none"
       d="m 196.09011,86.953894 c -2.8267,1.0277 -4.8271,0.09549 -7.65382,-0.93169 v 0.33995 c 2.81635,1.0241 4.83697,1.61582 7.65382,0.59174 z" /><path
       inkscape:connector-curvature="0"
       id="path234"
       style="fill:#464646;fill-opacity:1;fill-rule:nonzero;stroke:none"
       d="m 200.93017,87.505104 c 2.52775,1.63968 5.1401,2.4525 7.66733,0.81282 v 0.3405 c -2.53762,1.64641 -5.12972,0.49309 -7.66733,-1.15332 z" /><path
       inkscape:connector-curvature="0"
       id="path238"
       style="fill:#464646;fill-opacity:1;fill-rule:nonzero;stroke:none"
       d="m 196.36574,87.505104 c -2.52775,1.63968 -5.14012,2.4525 -7.66734,0.81282 v 0.3405 c 2.53762,1.64641 5.12972,0.49309 7.66734,-1.15332 z" /><path
       inkscape:connector-curvature="0"
       id="path242"
       style="fill:#464646;fill-opacity:1;fill-rule:nonzero;stroke:none"
       d="m 201.70927,87.971214 c 0,1.69073 -1.37058,3.06132 -3.06131,3.06132 -1.69074,0 -3.06133,-1.37059 -3.06133,-3.06132 0,-1.69074 1.37059,-3.06131 3.06133,-3.06131 1.69073,0 3.06131,1.37057 3.06131,3.06131 z" /><path
       inkscape:connector-curvature="0"
       id="path246"
       style="fill:#464646;fill-opacity:1;fill-rule:nonzero;stroke:none"
       d="m 207.95135,100.49948 c 0,0.93937 -0.76151,1.70089 -1.70089,1.70089 -0.93937,0 -1.70089,-0.76152 -1.70089,-1.70089 0,-0.93937 0.76152,-1.70088 1.70089,-1.70088 0.93938,0 1.70089,0.76151 1.70089,1.70088 z" /><path
       inkscape:connector-curvature="0"
       id="path250"
       style="fill:#464646;fill-opacity:1;fill-rule:nonzero;stroke:none"
       d="m 192.30425,100.49948 c 0,0.93937 -0.7615,1.70089 -1.70088,1.70089 -0.93937,0 -1.7009,-0.76152 -1.7009,-1.70089 0,-0.93937 0.76153,-1.70088 1.7009,-1.70088 0.93938,0 1.70088,0.76151 1.70088,1.70088 z" /><g
       id="g256"
       transform="translate(28.346,156.74)"><path
         inkscape:connector-curvature="0"
         id="path258"
         style="fill:#800000;fill-opacity:1;fill-rule:nonzero;stroke:none"
         d="m 186.9957,-50.68419 c 0.82666,3.08482 -5.85826,7.5565 -14.93143,9.98789 -9.07317,2.43136 -17.09834,1.90165 -17.925,-1.18319 -0.82667,-3.08482 5.85826,-7.5565 14.93143,-9.98788 9.07316,-2.43137 17.09834,-1.90166 17.925,1.18318 z" /></g><g
       id="g260"
       transform="translate(28.346,156.74)"><path
         inkscape:connector-curvature="0"
         id="path262"
         style="fill:#800000;fill-opacity:1;fill-rule:nonzero;stroke:none"
         d="m 189.51913,-47.83861 c 0.82667,3.08483 -6.59381,7.75362 -16.57435,10.42815 -9.98053,2.67453 -18.74128,2.34192 -19.56792,-0.74291 -0.82666,-3.08483 6.59381,-7.75361 16.57434,-10.42814 9.98055,-2.67453 18.74127,-2.34194 19.56793,0.7429 z" /></g><g
       id="g264"
       transform="translate(28.346,156.74)"><path
         inkscape:connector-curvature="0"
         id="path266"
         style="fill:#800000;fill-opacity:1;fill-rule:nonzero;stroke:none"
         d="m 175.39723,-38.7721 c 0.38901,1.45174 -0.47246,2.94393 -1.92418,3.33295 -1.45173,0.38902 -2.94392,-0.47244 -3.33295,-1.92418 -0.38902,-1.45172 0.47245,-2.94392 1.92419,-3.33294 1.45171,-0.38901 2.94392,0.47245 3.33294,1.92417 z" /></g></g></svg>
